<svg xmlns="http://www.w3.org/2000/svg" width="176" height="176" viewBox="0 0 176 176" fill="none">
  <path d="M35 72c14-38 55-51 85-31 24 16 28 51 8 72-21 22-59 20-78-1-13-15-15-38-4-55 13-21 43-27 62-12 15 12 18 35 5 48-13 14-36 12-47-3-8-11-7-27 3-37" stroke="#9A4F20" stroke-width="4" stroke-linecap="round" opacity=".14"/>
  <path d="M118 35c6-7 14-11 23-13-4 8-9 15-17 20" stroke="#1A1A1A" stroke-width="4" stroke-linecap="round" opacity=".12"/>
  <circle cx="39" cy="130" r="7" fill="#1A1A1A" opacity=".08"/>
</svg>
